<svg width="558" height="446" viewBox="0 0 558 446" fill="none" xmlns="http://www.w3.org/2000/svg">
<ellipse cx="279.5" cy="181" rx="191.5" ry="181" fill="#82ABD0"/>
<path d="M244.5 218C253.613 218 261 211.284 261 203C261 194.716 253.613 188 244.5 188C235.387 188 228 194.716 228 203C228 211.284 235.387 218 244.5 218Z" fill="#010101"/>
<path d="M208.089 178.737C208.089 178.737 219.201 223.649 241.708 223.649C264.215 223.649 271.997 208.599 287.837 178.737C290.06 173.483 298.95 171.332 304.787 174.437C310.62 177.543 312.012 183.276 310.344 186.622C308.676 189.967 279.779 238.699 279.779 238.699C279.779 238.699 276.446 247.298 275.888 261.634C275.333 275.969 275.333 280.746 275.333 280.746C275.333 280.746 275.609 286 268.943 286C262.273 286 218.649 286 218.649 286C218.649 286 212.953 285.523 212.953 281.103C212.953 276.684 212.535 257.094 212.535 257.094C212.535 257.094 211.425 249.452 209.478 244.43C207.534 239.414 188.915 188.291 188.915 188.291C188.915 188.291 184.748 177.303 194.196 174.197C203.643 171.092 208.089 178.737 208.089 178.737Z" fill="#010101"/>
<path d="M232.5 139C242.165 139 250 132.284 250 124C250 115.716 242.165 109 232.5 109C222.835 109 215 115.716 215 124C215 132.284 222.835 139 232.5 139Z" fill="#010101"/>
<path d="M280.091 182.977C280.091 182.977 285.707 171.71 292.484 170.503C294.036 169.781 294.519 170.021 293.355 165.836C292.198 161.652 281.254 127.367 281.254 127.367C281.254 127.367 278.059 119.762 268.33 122.658C258.601 125.557 261.362 133.402 261.362 133.402L276.027 182.977C276.027 182.977 277.333 187.529 280.091 182.977Z" fill="#010101"/>
<path d="M273 190.462L257.489 138.392C257.489 138.392 255.644 131.6 246.53 140.274C242.349 142.782 237.416 144.351 230.095 143.409C222.774 142.469 217.105 139.508 213.66 135.813C210.218 132.118 189.362 95.4163 189.362 95.4163C189.362 95.4163 184.737 88.5149 175.506 91.9668C166.274 95.4163 171.442 104.512 171.442 104.512L195.816 153.76C195.816 153.76 200.616 163.486 200.984 167.563C202.093 170.385 199.97 171.325 206.154 172.895C210.215 174.464 215.015 179.169 216.495 183.873C217.972 188.577 218.948 195.481 226.952 190.462C234.957 185.445 241.103 183.563 246.524 183.873C251.943 184.19 258.364 185.445 262.907 191.087C267.459 196.738 269.233 198.713 273 190.462Z" fill="#010101"/>
<path d="M266.376 121.175C266.376 121.175 277.115 115.015 282.727 121.175C284.478 122.875 286.388 122.236 289.073 116.502C291.758 110.765 300.426 95.4643 300.426 95.4643C300.426 95.4643 305.274 87.3046 297.952 84.1176C290.629 80.9307 285.185 85.0649 281.995 90.1604C278.805 95.2581 264.774 117.565 264.774 117.565C264.774 117.565 262.225 121.812 266.376 121.175Z" fill="#010101"/>
<path d="M322.496 152C312.835 152 305 158.493 305 166.499C305 167.687 305.172 168.84 305.503 169.946C311.175 171.498 315.555 175.395 316.97 180.255C318.708 180.735 320.567 181 322.499 181C332.168 181 340 174.507 340 166.499C340 158.49 332.16 152 322.496 152Z" fill="#010101"/>
<path d="M409.828 115.145C410.78 110.525 405.147 108.75 402.885 109.119C402.269 102.947 394.972 105.875 394.972 105.875L396.715 103.083L407.991 84.1109C407.991 84.1109 411.62 78.5131 406.166 75.9932C399.639 73.4388 396.404 80.5466 396.404 80.5466L380.544 106.64C380.544 106.64 378.977 105.471 375.574 106.601C366.504 109.616 367.104 116.946 366.115 125.418C365.123 133.891 360.971 142.338 360.971 142.338L389.345 155.251L391.593 152.399C391.593 152.399 392.993 148.554 403.445 142.465C413.901 136.376 413.572 124.616 414.956 121.93C416.337 119.242 412.304 115.546 409.828 115.145Z" fill="#010101"/>
<path d="M384.36 156.676L362.368 146.901L342.119 178.569C342.119 178.569 337.724 188.254 327.105 187.473C316.484 186.691 315.019 191.065 315.019 191.065C315.019 191.065 291.948 228.552 285.356 239.482C278.765 250.417 291.581 251.353 291.581 251.353H342.116C350.17 251.353 348.708 247.918 348.708 245.419C347.608 214.807 359.692 195.752 359.692 195.752L384.36 156.676Z" fill="#010101"/>
<path d="M193 169.848L166.893 131L164 132.328L190.226 171C190.226 171 191.83 170.164 193 169.848Z" fill="#010101"/>
<path d="M163.712 136L173 151.459C173 151.459 163.893 156.279 162.379 159.554C160.502 163.614 155.346 165.498 151.338 164.887C148.905 160.856 145 153.267 145 153.267C145 153.267 152.063 150.755 153.799 146.132C155.535 141.51 161.9 136.181 163.712 136Z" fill="#010101"/>
<path d="M5.33335 300.529C4.19393 300.694 3.13044 301.1 2.25323 301.706C1.37601 302.311 0.717034 303.093 0.344667 303.971C-0.0276988 304.849 -0.0998854 305.791 0.135597 306.699C0.37108 307.606 0.905653 308.447 1.68385 309.134L43.4504 347.288L1.68385 385.442C0.868836 386.192 0.340042 387.114 0.16028 388.099C-0.0194807 389.083 0.157346 390.088 0.669759 390.994C1.18217 391.9 2.00863 392.669 3.05096 393.21C4.09328 393.752 5.30767 394.041 6.54985 394.046H90.4884C90.6235 394.05 90.7588 394.05 90.8939 394.046V440.804C90.894 442.182 91.5776 443.504 92.7943 444.478C94.011 445.452 95.6612 446 97.3819 446H460.71C462.431 446 464.081 445.452 465.298 444.478C466.514 443.504 467.198 442.182 467.198 440.804V394.046C467.333 394.05 467.468 394.05 467.604 394.046H551.542C552.784 394.041 553.999 393.752 555.041 393.21C556.083 392.669 556.91 391.9 557.422 390.994C557.935 390.088 558.111 389.083 557.932 388.099C557.752 387.114 557.223 386.192 556.408 385.442L514.642 347.288L556.408 309.134C557.223 308.383 557.752 307.461 557.932 306.477C558.111 305.493 557.935 304.488 557.422 303.582C556.91 302.675 556.083 301.906 555.041 301.365C553.999 300.824 552.784 300.534 551.542 300.529H403.332H402.318H376.366C376.163 300.521 375.96 300.521 375.758 300.529C375.555 300.521 375.352 300.521 375.15 300.529C374.944 300.575 374.741 300.629 374.541 300.691C374.335 300.737 374.132 300.791 373.933 300.853C373.723 300.952 373.52 301.061 373.325 301.178C373.119 301.224 372.916 301.278 372.717 301.34C372.507 301.439 372.303 301.548 372.109 301.665C371.805 301.913 371.533 302.185 371.298 302.477C370.994 302.725 370.722 302.997 370.487 303.289C370.041 304.049 369.832 304.885 369.878 305.724C369.861 305.94 369.861 306.157 369.878 306.373V352.482H188.214V306.211C188.266 305.833 188.266 305.452 188.214 305.074C188.151 304.964 188.084 304.856 188.011 304.75C188.012 304.696 188.012 304.642 188.011 304.588C188.016 304.479 188.016 304.371 188.011 304.263C188.012 304.209 188.012 304.155 188.011 304.101C187.949 303.991 187.881 303.882 187.809 303.776C187.743 303.721 187.675 303.666 187.606 303.614C187.607 303.56 187.607 303.506 187.606 303.452C187.543 303.341 187.475 303.233 187.403 303.127C187.34 303.017 187.273 302.908 187.2 302.802C187.011 302.629 186.808 302.467 186.592 302.315C186.529 302.205 186.462 302.097 186.389 301.99C186.322 301.99 186.254 301.99 186.187 301.99C186.058 301.877 185.922 301.769 185.781 301.666C185.586 301.548 185.383 301.44 185.173 301.341C184.501 300.959 183.744 300.684 182.943 300.529C182.875 300.528 182.807 300.528 182.74 300.529C182.605 300.526 182.47 300.526 182.334 300.529C182.132 300.521 181.929 300.521 181.726 300.529H154.558H6.55001C6.14541 300.498 5.73796 300.498 5.33335 300.529ZM20.7424 310.92H155.368H162.465L93.7324 353.295L93.3269 353.457C93.1109 353.608 92.9077 353.771 92.7186 353.944C92.5776 354.047 92.4423 354.155 92.3131 354.268C92.3121 354.322 92.3121 354.377 92.3131 354.431C92.1756 354.481 92.0404 354.535 91.9076 354.593C91.9065 354.647 91.9065 354.701 91.9076 354.755C91.6744 355.01 91.4708 355.282 91.2993 355.567C91.2983 355.621 91.2983 355.675 91.2993 355.729C91.2302 355.782 91.1626 355.836 91.0966 355.891C91.0923 355.999 91.0923 356.107 91.0966 356.216C90.7186 357.105 90.6485 358.059 90.8938 358.977V383.655C90.7587 383.652 90.6234 383.652 90.4883 383.655H20.7422L56.8318 350.697C57.8586 349.751 58.4241 348.541 58.4241 347.288C58.4241 346.035 57.8586 344.824 56.8318 343.878L20.7424 310.92ZM395.627 310.92H402.318H537.35L501.26 343.878C500.233 344.824 499.668 346.035 499.668 347.288C499.668 348.541 500.233 349.751 501.26 350.697L537.35 383.655H467.604C467.466 383.705 467.331 383.759 467.198 383.816V359.301C467.534 358.346 467.522 357.334 467.162 356.385C466.803 355.435 466.112 354.588 465.17 353.943C465.172 353.889 465.172 353.835 465.17 353.781C465.038 353.723 464.902 353.669 464.765 353.619C464.766 353.565 464.766 353.511 464.765 353.457L395.627 310.92ZM175.238 316.277V352.483H116.44L175.238 316.277ZM382.854 316.277L441.652 352.483H382.854V316.277ZM103.87 362.874H181.726H182.942H375.352H454.222V435.609H103.87V362.874Z" fill="black"/>
<path d="M181.148 379.474H198.556V387.384H191.427V394.879H197.774V402.398H191.427V419H181.148V379.474ZM218.819 379.474L224.703 419H214.181L213.668 411.896H209.981L209.371 419H198.727L203.951 379.474H218.819ZM213.375 404.889C212.854 400.413 212.333 394.887 211.812 388.312C210.771 395.864 210.12 401.389 209.859 404.889H213.375ZM249.41 379.474V419H240.401L235.055 401.031V419H226.461V379.474H235.055L240.816 397.271V379.474H249.41ZM275.338 391.437H265.792V388.507C265.792 387.14 265.67 386.269 265.426 385.895C265.182 385.52 264.775 385.333 264.205 385.333C263.587 385.333 263.115 385.585 262.789 386.09C262.48 386.594 262.325 387.359 262.325 388.385C262.325 389.703 262.504 390.696 262.862 391.363C263.204 392.031 264.173 392.836 265.768 393.78C270.341 396.498 273.222 398.728 274.41 400.47C275.598 402.211 276.192 405.019 276.192 408.893C276.192 411.708 275.859 413.784 275.191 415.118C274.54 416.453 273.271 417.576 271.383 418.487C269.495 419.382 267.298 419.83 264.791 419.83C262.04 419.83 259.688 419.309 257.735 418.268C255.799 417.226 254.529 415.899 253.927 414.288C253.325 412.677 253.023 410.39 253.023 407.428V404.84H262.569V409.649C262.569 411.131 262.7 412.083 262.96 412.506C263.237 412.929 263.717 413.141 264.4 413.141C265.084 413.141 265.589 412.872 265.914 412.335C266.256 411.798 266.427 411 266.427 409.942C266.427 407.615 266.109 406.093 265.475 405.377C264.824 404.661 263.22 403.465 260.665 401.788C258.11 400.095 256.417 398.867 255.587 398.102C254.757 397.337 254.065 396.279 253.512 394.928C252.975 393.577 252.706 391.852 252.706 389.752C252.706 386.725 253.089 384.511 253.854 383.111C254.635 381.712 255.888 380.621 257.613 379.84C259.339 379.042 261.422 378.644 263.863 378.644C266.533 378.644 268.803 379.075 270.675 379.938C272.563 380.8 273.808 381.891 274.41 383.209C275.029 384.511 275.338 386.733 275.338 389.874V391.437ZM289.181 386.603L289.01 389.459C289.889 388.303 290.857 387.441 291.915 386.871C292.973 386.301 294.129 386.017 295.382 386.017C296.912 386.017 298.23 386.432 299.337 387.262C300.46 388.076 301.16 389.02 301.437 390.094C301.713 391.168 301.852 392.991 301.852 395.562V409.21C301.852 412.156 301.673 414.256 301.314 415.509C300.973 416.746 300.257 417.739 299.166 418.487C298.092 419.22 296.79 419.586 295.26 419.586C294.039 419.586 292.908 419.301 291.866 418.731C290.825 418.162 289.872 417.315 289.01 416.192V423.614H279.146V386.603H289.181ZM291.988 396.026C291.988 394.024 291.915 392.812 291.769 392.389C291.622 391.965 291.215 391.754 290.548 391.754C289.897 391.754 289.474 391.998 289.278 392.486C289.099 392.975 289.01 394.155 289.01 396.026V409.454C289.01 411.407 289.107 412.628 289.303 413.116C289.498 413.604 289.921 413.849 290.572 413.849C291.207 413.849 291.598 413.629 291.744 413.189C291.907 412.734 291.988 411.643 291.988 409.918V396.026ZM313.937 399.151H304.684V396.979C304.684 394.472 304.968 392.543 305.538 391.192C306.124 389.825 307.288 388.621 309.029 387.579C310.771 386.537 313.033 386.017 315.816 386.017C319.153 386.017 321.668 386.611 323.36 387.799C325.053 388.971 326.07 390.419 326.412 392.145C326.754 393.854 326.925 397.385 326.925 402.74V419H317.33V416.119C316.728 417.275 315.947 418.146 314.986 418.731C314.042 419.301 312.911 419.586 311.593 419.586C309.868 419.586 308.281 419.106 306.832 418.146C305.4 417.169 304.684 415.045 304.684 411.773V409.112C304.684 406.687 305.066 405.035 305.831 404.156C306.596 403.277 308.492 402.252 311.52 401.08C314.758 399.811 316.492 398.956 316.72 398.517C316.948 398.077 317.062 397.182 317.062 395.831C317.062 394.138 316.931 393.04 316.671 392.535C316.427 392.014 316.012 391.754 315.426 391.754C314.758 391.754 314.343 391.974 314.181 392.413C314.018 392.836 313.937 393.951 313.937 395.758V399.151ZM317.062 403.595C315.483 404.75 314.563 405.719 314.303 406.5C314.059 407.281 313.937 408.404 313.937 409.869C313.937 411.546 314.042 412.628 314.254 413.116C314.482 413.604 314.921 413.849 315.572 413.849C316.191 413.849 316.59 413.661 316.769 413.287C316.964 412.896 317.062 411.887 317.062 410.26V403.595ZM352.12 398.834H342.818V395.099C342.818 393.797 342.713 392.918 342.501 392.462C342.289 391.99 341.899 391.754 341.329 391.754C340.759 391.754 340.377 391.957 340.182 392.364C339.986 392.771 339.889 393.683 339.889 395.099V410.382C339.889 411.537 340.035 412.408 340.328 412.994C340.621 413.564 341.052 413.849 341.622 413.849C342.289 413.849 342.737 413.548 342.965 412.945C343.209 412.343 343.331 411.204 343.331 409.527V405.67H352.12C352.104 408.258 352.006 410.203 351.827 411.505C351.664 412.791 351.119 414.117 350.191 415.484C349.28 416.835 348.084 417.861 346.603 418.561C345.121 419.244 343.29 419.586 341.109 419.586C338.326 419.586 336.121 419.114 334.493 418.17C332.866 417.21 331.71 415.875 331.026 414.166C330.359 412.441 330.025 409.999 330.025 406.842V397.638C330.025 394.887 330.302 392.812 330.855 391.412C331.409 390.012 332.589 388.767 334.396 387.677C336.202 386.57 338.399 386.017 340.987 386.017C343.559 386.017 345.756 386.562 347.579 387.652C349.402 388.743 350.615 390.118 351.217 391.778C351.819 393.438 352.12 395.79 352.12 398.834ZM377.413 403.375H364.645V410.382C364.645 411.847 364.75 412.791 364.962 413.214C365.174 413.637 365.58 413.849 366.183 413.849C366.931 413.849 367.428 413.572 367.672 413.019C367.932 412.449 368.062 411.358 368.062 409.747V405.475H377.413V407.867C377.413 409.869 377.283 411.407 377.022 412.481C376.778 413.556 376.192 414.703 375.265 415.924C374.337 417.145 373.157 418.064 371.725 418.683C370.309 419.285 368.526 419.586 366.378 419.586C364.295 419.586 362.455 419.285 360.86 418.683C359.265 418.08 358.02 417.258 357.125 416.217C356.246 415.159 355.636 414.003 355.294 412.75C354.952 411.48 354.781 409.641 354.781 407.232V397.784C354.781 394.952 355.164 392.722 355.929 391.095C356.694 389.451 357.947 388.198 359.688 387.335C361.43 386.456 363.432 386.017 365.694 386.017C368.461 386.017 370.74 386.546 372.53 387.604C374.337 388.645 375.598 390.037 376.314 391.778C377.047 393.504 377.413 395.937 377.413 399.078V403.375ZM367.525 398.102V395.733C367.525 394.057 367.436 392.975 367.257 392.486C367.078 391.998 366.712 391.754 366.158 391.754C365.475 391.754 365.051 391.965 364.889 392.389C364.726 392.796 364.645 393.91 364.645 395.733V398.102H367.525Z" fill="black"/>
</svg>
